<svg width="40" height="35" viewBox="0 0 40 35" fill="none" xmlns="http://www.w3.org/2000/svg">
<path fill-rule="evenodd" clip-rule="evenodd" d="M16.9954 1.66771C18.3308 -0.5559 21.6692 -0.555906 23.0046 1.66771L39.53 29.1849C40.8654 31.4085 39.1963 34.188 36.5254 34.188H23.4695C22.6711 34.188 22.0239 33.5657 22.0239 32.7983C22.0239 32.0309 22.6711 31.4085 23.4695 31.4085H31.4083C34.0792 31.4085 35.7483 28.629 34.4131 26.4054L22.8953 7.22674C21.5599 5.00313 18.2214 5.00313 16.8861 7.22674L5.36834 26.4054C4.03296 28.629 5.70219 31.4085 8.37296 31.4085H16.5306C17.329 31.4085 17.9762 32.0309 17.9762 32.7983C17.9762 33.5657 17.329 34.188 16.5306 34.188H3.47461C0.803841 34.188 -0.865394 31.4085 0.469991 29.1849L16.9954 1.66771ZM25.2748 27.9341C27.9455 27.9341 29.6149 25.1546 28.2794 22.931L23.0213 14.1755C21.6859 11.9519 18.3475 11.9519 17.0121 14.1755L11.754 22.931C10.4186 25.1546 12.0878 27.9341 14.7586 27.9341H25.2748Z" fill="black"/>
</svg>
